<?xml version="1.0" encoding="UTF-8"?>
<svg version="1.1" viewBox="0 0 384 384" xml:space="preserve" xmlns="http://www.w3.org/2000/svg" xmlns:cc="http://creativecommons.org/ns#" xmlns:dc="http://purl.org/dc/elements/1.1/" xmlns:rdf="http://www.w3.org/1999/02/22-rdf-syntax-ns#"><title>Circular dashes loading icon</title><metadata><rdf:RDF><cc:Work rdf:about=""><dc:format>image/svg+xml</dc:format><dc:type rdf:resource="http://purl.org/dc/dcmitype/StillImage"/><dc:title>Circular dashes loading icon</dc:title></cc:Work></rdf:RDF></metadata>
<g transform="translate(-64,-64)">
	<path d="m432 240h-80c-8.8 0-16 7.2-16 16s7.2 16 16 16h80c8.8 0 16-7.2 16-16s-7.2-16-16-16z" fill-opacity=".60784"/>
	<path d="m176 256c0-8.8-7.2-16-16-16h-80c-8.8 0-16 7.2-16 16s7.2 16 16 16h80c8.8 0 16-7.2 16-16z"/>
	<path d="m256 336c-8.8 0-16 7.2-16 16v80c0 8.8 7.2 16 16 16s16-7.2 16-16v-80c0-8.8-7.2-16-16-16z" fill-opacity=".90196"/>
	<path d="m256 64c-8.8 0-16 7.2-16 16v80c0 8.8 7.2 16 16 16s16-7.2 16-16v-80c0-8.8-7.2-16-16-16z"/>
	<path d="m325.3 216c4.4 7.7 14.2 10.3 21.9 5.9l69.3-40c7.7-4.4 10.3-14.2 5.9-21.9s-14.2-10.3-21.9-5.9l-69.3 40c-7.7 4.5-10.3 14.2-5.9 21.9z"/>
	<path d="m186.7 296c-4.4-7.7-14.2-10.3-21.9-5.9l-69.3 40c-7.7 4.4-10.3 14.2-5.9 21.9s14.2 10.3 21.9 5.9l69.3-40c7.7-4.5 10.3-14.2 5.9-21.9z"/>
	<path d="m317.9 331.1c-4.4-7.7-14.2-10.3-21.9-5.9s-10.3 14.2-5.9 21.9l40 69.3c4.4 7.7 14.2 10.3 21.9 5.9s10.3-14.2 5.9-21.9l-40-69.3z" fill-opacity=".80392"/>
	<path d="m181.9 95.6c-4.4-7.7-14.2-10.3-21.9-5.9s-10.3 14.2-5.9 21.9l40 69.3c4.4 7.7 14.2 10.3 21.9 5.9s10.3-14.2 5.9-21.9l-40-69.3z"/>
	<path d="m296 186.7c7.7 4.4 17.4 1.8 21.9-5.9l40-69.3c4.4-7.7 1.8-17.4-5.9-21.9-7.7-4.4-17.4-1.8-21.9 5.9l-40 69.3c-4.4 7.7-1.8 17.5 5.9 21.9z"/>
	<path d="m216 325.3c-7.7-4.4-17.4-1.8-21.9 5.9l-40 69.3c-4.4 7.7-1.8 17.4 5.9 21.9 7.7 4.4 17.4 1.8 21.9-5.9l40-69.3c4.4-7.7 1.8-17.5-5.9-21.9z"/>
	<path d="m416.4 330.1-69.3-40c-7.7-4.4-17.4-1.8-21.9 5.9-4.4 7.7-1.8 17.4 5.9 21.9l69.3 40c7.7 4.4 17.4 1.8 21.9-5.9 4.4-7.7 1.8-17.4-5.9-21.9z" fill-opacity=".70588"/>
	<path d="m95.6 181.9 69.3 40c7.7 4.4 17.4 1.8 21.9-5.9s1.8-17.4-5.9-21.9l-69.3-40c-7.7-4.4-17.4-1.8-21.9 5.9-4.4 7.7-1.8 17.4 5.9 21.9z"/>
</g>
</svg>
